# Blender v2.83.4 OBJ File: ''
# www.blender.org
mtllib room.mtl
o outwhitebox
v 34.509998 43.839993 21.949997
v 15.009997 43.839993 21.949997
v 15.009995 43.839993 6.199996
v 34.509995 43.839993 6.199996
v 66.459999 43.903996 55.999996
v -16.939999 43.903996 56.000004
v -16.940006 43.903992 -27.879990
v 66.459991 43.903992 -27.879997
v -15.980007 -0.000009 -27.879997
v 66.459991 -0.000009 -27.879997
v -16.459999 -0.000009 56.000004
v 66.459999 -0.000009 55.999996
v -16.939999 43.903996 56.000004
v -16.459999 -0.000009 56.000004
v -15.980007 -0.000009 -27.879997
v -16.940006 43.903992 -27.879990
v 66.459991 43.903992 -27.879997
v 66.459991 -0.000009 -27.879997
v 66.459999 -0.000009 55.999996
v 66.459999 43.903996 55.999996
vn 0.0000 -1.0000 -0.0000
vn 0.0000 -0.0000 1.0000
vn -0.0000 1.0000 -0.0000
vn 0.9999 0.0164 0.0029
vn 0.9999 0.0135 0.0057
vn 0.9998 0.0194 -0.0000
vn -1.0000 0.0000 0.0000
g outwhitebox_outwhitebox__cornell_boxred
usemtl _cornell_boxred
s 1
f 1//1 2//1 3//1 4//1
f 5//1 6//1 7//1 8//1
f 8//2 7//2 9//2 10//2
f 9//3 11//3 12//3 10//3
g outwhitebox_outwhitebox_left
usemtl left
f 13//4 14//5 15//4 16//6
g outwhitebox_outwhitebox_right
usemtl right
f 17//7 18//7 19//7 20//7
